<svg
  width="16"
  height="16"
  viewBox="0 0 16 16"
  fill="none"
  xmlns="http://www.w3.org/2000/svg"
>
  <path
    d="M15.5896 14.4126L11.2369 10.06C12.187 8.81104 12.6272 7.24788 12.4685 5.68671C12.3098 4.12555 11.5641 2.68294 10.3821 1.65074C9.20017 0.618553 7.67028 0.0738449 6.10196 0.126823C4.53365 0.1798 3.044 0.826508 1.9344 1.93611C0.824799 3.04571 0.178091 4.53535 0.125114 6.10367C0.0721359 7.67199 0.616844 9.20188 1.64904 10.3838C2.68123 11.5658 4.12384 12.3115 5.685 12.4702C7.24617 12.6289 8.80933 12.1887 10.0582 11.2386L14.4109 15.5913C14.5685 15.7451 14.78 15.8311 15.0002 15.8311C15.2205 15.8311 15.4319 15.7451 15.5896 15.5913C15.7457 15.4349 15.8335 15.223 15.8335 15.002C15.8335 14.781 15.7457 14.569 15.5896 14.4126V14.4126ZM1.83358 6.33329C1.83358 5.44327 2.0975 4.57324 2.59196 3.83322C3.08643 3.0932 3.78923 2.51642 4.6115 2.17583C5.43377 1.83523 6.33857 1.74612 7.21148 1.91975C8.0844 2.09339 8.88622 2.52197 9.51556 3.15131C10.1449 3.78064 10.5735 4.58247 10.7471 5.45538C10.9207 6.3283 10.8316 7.23309 10.491 8.05536C10.1504 8.87763 9.57367 9.58043 8.83364 10.0749C8.09362 10.5694 7.22359 10.8333 6.33358 10.8333C5.14054 10.8319 3.99676 10.3573 3.15316 9.51371C2.30955 8.6701 1.83499 7.52633 1.83358 6.33329V6.33329Z"
    fill="#6D99FB"
  />
</svg>
